<svg xmlns="http://www.w3.org/2000/svg" xmlns:xlink="http://www.w3.org/1999/xlink" width="500" zoomAndPan="magnify" viewBox="0 0 375 374.999991" height="500" preserveAspectRatio="xMidYMid meet" version="1.0"><defs><g/><clipPath id="6c8ed801d2"><path d="M 177 114 L 274 114 L 274 268.566406 L 177 268.566406 Z M 177 114 " clip-rule="nonzero"/></clipPath><clipPath id="19dcc07b34"><path d="M 106.957031 191.75 L 212.746094 191.75 L 212.746094 231.933594 L 106.957031 231.933594 Z M 106.957031 191.75 " clip-rule="nonzero"/></clipPath><clipPath id="4e2efad1b9"><path d="M 124.207031 191.75 L 195.40625 191.75 C 204.933594 191.75 212.65625 199.476562 212.65625 209 L 212.65625 214.683594 C 212.65625 224.210938 204.933594 231.933594 195.40625 231.933594 L 124.207031 231.933594 C 114.679688 231.933594 106.957031 224.210938 106.957031 214.683594 L 106.957031 209 C 106.957031 199.476562 114.679688 191.75 124.207031 191.75 Z M 124.207031 191.75 " clip-rule="nonzero"/></clipPath><clipPath id="0ec35e2ab3"><path d="M 0.957031 0.75 L 106.746094 0.75 L 106.746094 40.933594 L 0.957031 40.933594 Z M 0.957031 0.75 " clip-rule="nonzero"/></clipPath><clipPath id="5d4b8bd523"><path d="M 18.207031 0.75 L 89.40625 0.75 C 98.933594 0.75 106.65625 8.476562 106.65625 18 L 106.65625 23.683594 C 106.65625 33.210938 98.933594 40.933594 89.40625 40.933594 L 18.207031 40.933594 C 8.679688 40.933594 0.957031 33.210938 0.957031 23.683594 L 0.957031 18 C 0.957031 8.476562 8.679688 0.75 18.207031 0.75 Z M 18.207031 0.75 " clip-rule="nonzero"/></clipPath><clipPath id="bbb8dcc9d1"><rect x="0" width="107" y="0" height="41"/></clipPath></defs><g clip-path="url(#6c8ed801d2)"><path fill="#3dbdec" d="M 195.6875 118.632812 C 200.378906 118.632812 206.757812 117.167969 212.1875 116.878906 C 228.898438 115.984375 246.035156 118.867188 255.832031 131.914062 C 268.445312 148.726562 262.289062 175.605469 253.039062 192.640625 C 242.917969 211.269531 231.351562 222.378906 216.101562 233.8125 C 212.125 236.789062 210.253906 238.984375 206.71875 239.4375 C 203.640625 236.332031 199.367188 234.410156 194.648438 234.410156 C 185.257812 234.410156 177.640625 242.023438 177.640625 251.417969 C 177.640625 260.808594 185.257812 268.425781 194.648438 268.425781 C 203.976562 268.425781 211.550781 260.902344 211.644531 251.585938 C 212.554688 251.054688 213.789062 250.351562 215.554688 249.3125 C 219.855469 246.792969 223.960938 244.296875 227.457031 241.6875 L 238.175781 232.875 C 267.863281 207.671875 289.273438 155.558594 257.742188 126.496094 C 236.121094 106.566406 203.082031 118.441406 195.6875 118.632812 Z M 195.6875 118.632812 " fill-opacity="1" fill-rule="evenodd"/></g><path fill="#1f2b5b" d="M 188.582031 231.265625 C 180.097656 226.199219 175.707031 226.042969 164.183594 217.273438 C 138.898438 198.070312 124.414062 163.898438 144.253906 138.238281 C 159.492188 118.515625 193.492188 131.757812 199.792969 139.824219 C 200.71875 141.019531 201.316406 142.4375 201.742188 143.984375 C 201.054688 145.828125 200.679688 147.816406 200.679688 149.894531 C 200.679688 159.289062 208.292969 166.902344 217.683594 166.902344 C 227.078125 166.902344 234.691406 159.289062 234.691406 149.894531 C 234.691406 140.5 227.078125 132.886719 217.683594 132.886719 C 216.179688 132.886719 214.710938 133.082031 213.320312 133.457031 C 211.980469 132.820312 210.214844 131.875 207.757812 130.445312 C 199.367188 125.558594 191.195312 120.945312 179.957031 119.179688 C 167.09375 117.152344 157.957031 118.621094 148.175781 124.039062 C 111.1875 144.582031 122.242188 186.363281 149.851562 211.398438 C 157.804688 218.625 178.695312 229.238281 188.582031 231.265625 Z M 188.582031 231.265625 " fill-opacity="1" fill-rule="evenodd"/><path fill="#3dbdec" d="M 168.964844 163.339844 C 150.34375 163.339844 153.789062 159.484375 153.917969 178.683594 L 168.949219 179.011719 L 168.964844 194.042969 L 184.582031 194.015625 L 184.582031 179.269531 L 199.601562 178.945312 L 199.636719 163.394531 L 184.734375 163.316406 L 184.566406 148.308594 L 168.964844 148.308594 Z M 168.964844 163.339844 " fill-opacity="1" fill-rule="evenodd"/><g clip-path="url(#19dcc07b34)"><g clip-path="url(#4e2efad1b9)"><g transform="matrix(1, 0, 0, 1, 106, 191)"><g clip-path="url(#bbb8dcc9d1)"><g clip-path="url(#0ec35e2ab3)"><g clip-path="url(#5d4b8bd523)"><path fill="#ffffff" d="M 0.957031 0.75 L 106.589844 0.75 L 106.589844 40.933594 L 0.957031 40.933594 Z M 0.957031 0.75 " fill-opacity="1" fill-rule="nonzero"/></g></g></g></g></g></g><g fill="#ffffff" fill-opacity="1"><g transform="translate(75.80613, 224.217261)"><g><path d="M 14.726562 5.207031 C 12.726562 5.207031 11.003906 4.714844 9.5625 3.730469 C 8.195312 2.800781 7.113281 1.464844 6.316406 -0.28125 L -3.269531 -21.433594 C -4.132812 -23.320312 -4.371094 -25.15625 -3.988281 -26.945312 C -3.785156 -27.890625 -3.433594 -28.753906 -2.929688 -29.539062 C -2.402344 -30.355469 -1.738281 -31.046875 -0.933594 -31.613281 C 0.484375 -32.613281 2.140625 -33.113281 4.039062 -33.113281 C 6.335938 -33.113281 8.214844 -32.472656 9.671875 -31.195312 C 10.761719 -30.238281 11.652344 -28.960938 12.335938 -27.363281 L 23.332031 -1.917969 L 6.363281 -1.917969 L 17.359375 -27.414062 C 18.058594 -29.042969 18.980469 -30.335938 20.132812 -31.296875 C 21.585938 -32.507812 23.398438 -33.113281 25.570312 -33.113281 C 27.453125 -33.113281 29.101562 -32.59375 30.511719 -31.550781 C 31.296875 -30.96875 31.945312 -30.265625 32.449219 -29.4375 C 32.925781 -28.65625 33.253906 -27.796875 33.4375 -26.863281 C 33.785156 -25.101562 33.527344 -23.289062 32.675781 -21.417969 L 23.058594 -0.289062 L 18.644531 -2.296875 L 23.101562 -0.386719 C 22.339844 1.390625 21.277344 2.753906 19.910156 3.703125 C 18.46875 4.707031 16.742188 5.207031 14.726562 5.207031 Z M 14.726562 -4.492188 C 14.789062 -4.492188 14.839844 -4.496094 14.878906 -4.5 C 14.882812 -4.5 14.886719 -4.5 14.886719 -4.5 C 14.875 -4.5 14.863281 -4.496094 14.851562 -4.492188 C 14.699219 -4.453125 14.539062 -4.375 14.371094 -4.257812 C 14.242188 -4.167969 14.148438 -4.082031 14.082031 -3.996094 C 14.105469 -4.027344 14.140625 -4.097656 14.1875 -4.207031 L 14.207031 -4.253906 L 23.851562 -25.449219 C 23.878906 -25.503906 23.898438 -25.550781 23.90625 -25.585938 L 23.910156 -25.589844 C 23.90625 -25.578125 23.902344 -25.5625 23.902344 -25.546875 C 23.875 -25.382812 23.878906 -25.199219 23.921875 -24.992188 C 23.960938 -24.796875 24.042969 -24.59375 24.167969 -24.390625 C 24.320312 -24.132812 24.515625 -23.921875 24.75 -23.75 C 24.929688 -23.617188 25.117188 -23.523438 25.316406 -23.460938 C 25.421875 -23.429688 25.507812 -23.414062 25.570312 -23.414062 C 25.53125 -23.414062 25.5 -23.414062 25.484375 -23.410156 C 25.519531 -23.414062 25.5625 -23.425781 25.613281 -23.441406 C 25.863281 -23.515625 26.105469 -23.648438 26.339844 -23.84375 C 26.40625 -23.902344 26.449219 -23.941406 26.464844 -23.960938 C 26.40625 -23.878906 26.339844 -23.75 26.265625 -23.570312 L 18.1875 -4.847656 L 13.734375 -6.769531 L 13.734375 -11.617188 L 15.953125 -11.617188 L 15.953125 -6.769531 L 11.5 -4.84375 L 3.421875 -23.542969 C 3.339844 -23.730469 3.265625 -23.871094 3.199219 -23.972656 C 3.191406 -23.980469 3.1875 -23.988281 3.183594 -23.996094 C 3.183594 -23.996094 3.183594 -23.996094 3.1875 -23.992188 C 3.207031 -23.964844 3.238281 -23.9375 3.273438 -23.90625 C 3.539062 -23.671875 3.8125 -23.511719 4.09375 -23.429688 C 4.140625 -23.417969 4.175781 -23.410156 4.195312 -23.40625 C 4.160156 -23.410156 4.105469 -23.414062 4.039062 -23.414062 L 4.027344 -23.414062 C 4.066406 -23.417969 4.109375 -23.429688 4.15625 -23.441406 C 4.324219 -23.492188 4.492188 -23.570312 4.652344 -23.6875 C 4.878906 -23.84375 5.070312 -24.046875 5.226562 -24.289062 C 5.359375 -24.496094 5.449219 -24.703125 5.492188 -24.910156 C 5.542969 -25.132812 5.550781 -25.332031 5.523438 -25.511719 C 5.515625 -25.539062 5.511719 -25.558594 5.511719 -25.570312 C 5.519531 -25.539062 5.539062 -25.496094 5.566406 -25.4375 L 15.136719 -4.3125 C 15.195312 -4.191406 15.238281 -4.109375 15.269531 -4.066406 C 15.214844 -4.136719 15.132812 -4.207031 15.019531 -4.285156 C 14.867188 -4.390625 14.722656 -4.460938 14.585938 -4.496094 C 14.574219 -4.5 14.566406 -4.5 14.558594 -4.503906 C 14.558594 -4.5 14.5625 -4.5 14.570312 -4.5 C 14.609375 -4.496094 14.664062 -4.492188 14.726562 -4.492188 Z M 14.726562 -4.492188 "/></g></g></g><g fill="#ffffff" fill-opacity="1"><g transform="translate(102.992884, 224.217261)"><g><path d="M 6.175781 5.207031 C 5.03125 5.207031 3.96875 5.027344 2.988281 4.675781 C 1.84375 4.265625 0.855469 3.632812 0.0195312 2.78125 C -0.804688 1.9375 -1.417969 0.941406 -1.8125 -0.203125 C -2.148438 -1.175781 -2.316406 -2.226562 -2.316406 -3.363281 L -2.316406 -24.542969 C -2.316406 -25.6875 -2.148438 -26.746094 -1.816406 -27.71875 C -1.414062 -28.890625 -0.792969 -29.898438 0.0546875 -30.742188 C 0.890625 -31.578125 1.878906 -32.195312 3.015625 -32.597656 C 3.988281 -32.941406 5.039062 -33.113281 6.175781 -33.113281 C 7.320312 -33.113281 8.375 -32.941406 9.347656 -32.601562 C 10.511719 -32.195312 11.511719 -31.5625 12.351562 -30.707031 C 13.179688 -29.859375 13.789062 -28.855469 14.183594 -27.6875 C 14.503906 -26.726562 14.667969 -25.679688 14.667969 -24.542969 L 14.667969 -3.363281 C 14.667969 -0.898438 13.925781 1.125 12.441406 2.707031 C 11.601562 3.601562 10.585938 4.261719 9.390625 4.683594 C 8.410156 5.03125 7.339844 5.207031 6.175781 5.207031 Z M 6.175781 -4.492188 C 6.234375 -4.492188 6.277344 -4.496094 6.300781 -4.5 C 6.261719 -4.492188 6.207031 -4.476562 6.144531 -4.457031 C 5.863281 -4.355469 5.605469 -4.179688 5.371094 -3.933594 C 5.1875 -3.734375 5.058594 -3.527344 4.984375 -3.308594 C 4.972656 -3.269531 4.964844 -3.238281 4.960938 -3.21875 C 4.964844 -3.25 4.96875 -3.300781 4.96875 -3.363281 L 4.96875 -24.542969 C 4.96875 -24.613281 4.964844 -24.667969 4.960938 -24.703125 C 4.960938 -24.679688 4.972656 -24.648438 4.988281 -24.601562 C 5.066406 -24.359375 5.214844 -24.132812 5.421875 -23.921875 C 5.640625 -23.699219 5.878906 -23.539062 6.140625 -23.449219 C 6.199219 -23.429688 6.25 -23.414062 6.285156 -23.410156 C 6.265625 -23.414062 6.230469 -23.414062 6.175781 -23.414062 C 6.132812 -23.414062 6.105469 -23.414062 6.089844 -23.410156 C 6.132812 -23.417969 6.183594 -23.429688 6.246094 -23.453125 C 6.488281 -23.539062 6.710938 -23.683594 6.914062 -23.882812 C 7.125 -24.097656 7.273438 -24.328125 7.359375 -24.574219 C 7.375 -24.625 7.386719 -24.660156 7.390625 -24.6875 C 7.386719 -24.65625 7.382812 -24.609375 7.382812 -24.542969 L 7.382812 -3.363281 C 7.382812 -3.308594 7.382812 -3.269531 7.386719 -3.246094 C 7.382812 -3.277344 7.371094 -3.316406 7.355469 -3.371094 C 7.277344 -3.597656 7.140625 -3.8125 6.949219 -4.007812 C 6.746094 -4.210938 6.523438 -4.359375 6.273438 -4.449219 C 6.210938 -4.472656 6.152344 -4.488281 6.105469 -4.496094 C 6.113281 -4.492188 6.136719 -4.492188 6.175781 -4.492188 Z M 6.175781 -4.492188 "/></g></g></g><g fill="#ffffff" fill-opacity="1"><g transform="translate(113.162733, 224.217261)"><g><path d="M 12.746094 5.207031 C 11.601562 5.207031 10.539062 5.027344 9.558594 4.675781 C 8.414062 4.265625 7.425781 3.632812 6.589844 2.78125 C 5.769531 1.941406 5.160156 0.957031 4.765625 -0.171875 C 4.425781 -1.144531 4.253906 -2.195312 4.253906 -3.324219 L 4.253906 -21.96875 L 9.105469 -21.96875 L 9.105469 -17.121094 L 2.890625 -17.121094 C 1.859375 -17.121094 0.902344 -17.273438 0.015625 -17.578125 C -1.0625 -17.949219 -1.992188 -18.527344 -2.777344 -19.3125 C -3.554688 -20.089844 -4.128906 -21.007812 -4.5 -22.070312 C -4.8125 -22.957031 -4.96875 -23.910156 -4.96875 -24.9375 C -4.96875 -25.972656 -4.8125 -26.933594 -4.503906 -27.820312 C -4.125 -28.910156 -3.535156 -29.847656 -2.730469 -30.628906 C -1.945312 -31.394531 -1.019531 -31.957031 0.0507812 -32.316406 C 0.925781 -32.609375 1.871094 -32.757812 2.890625 -32.757812 L 22.601562 -32.757812 C 23.621094 -32.757812 24.566406 -32.609375 25.441406 -32.316406 C 26.511719 -31.957031 27.4375 -31.394531 28.222656 -30.628906 C 29.027344 -29.847656 29.617188 -28.910156 30 -27.820312 C 30.308594 -26.933594 30.460938 -25.972656 30.460938 -24.9375 C 30.460938 -23.910156 30.304688 -22.957031 29.992188 -22.070312 C 29.621094 -21.007812 29.046875 -20.089844 28.269531 -19.3125 C 27.484375 -18.527344 26.554688 -17.949219 25.476562 -17.578125 C 24.589844 -17.273438 23.632812 -17.121094 22.601562 -17.121094 L 16.386719 -17.121094 L 16.386719 -21.96875 L 21.238281 -21.96875 L 21.238281 -3.324219 C 21.238281 -2.214844 21.078125 -1.183594 20.757812 -0.234375 C 20.382812 0.886719 19.800781 1.867188 19.011719 2.707031 C 18.171875 3.601562 17.15625 4.261719 15.960938 4.683594 C 14.980469 5.03125 13.910156 5.207031 12.746094 5.207031 Z M 12.746094 -4.492188 C 12.804688 -4.492188 12.847656 -4.496094 12.871094 -4.5 C 12.832031 -4.492188 12.78125 -4.476562 12.71875 -4.457031 C 12.433594 -4.355469 12.175781 -4.179688 11.941406 -3.933594 C 11.761719 -3.742188 11.636719 -3.539062 11.5625 -3.320312 C 11.546875 -3.273438 11.539062 -3.234375 11.535156 -3.207031 C 11.535156 -3.230469 11.539062 -3.269531 11.539062 -3.324219 L 11.539062 -26.820312 L 22.601562 -26.820312 C 22.613281 -26.820312 22.617188 -26.820312 22.621094 -26.820312 C 22.609375 -26.820312 22.59375 -26.816406 22.574219 -26.8125 C 22.496094 -26.800781 22.40625 -26.78125 22.3125 -26.746094 C 21.980469 -26.632812 21.679688 -26.441406 21.410156 -26.171875 C 21.148438 -25.90625 20.957031 -25.613281 20.84375 -25.285156 C 20.789062 -25.128906 20.761719 -25.015625 20.761719 -24.9375 C 20.761719 -24.949219 20.761719 -24.953125 20.761719 -24.953125 C 20.761719 -24.941406 20.765625 -24.925781 20.765625 -24.90625 C 20.78125 -24.824219 20.804688 -24.730469 20.839844 -24.628906 C 20.960938 -24.28125 21.167969 -23.964844 21.457031 -23.683594 C 21.726562 -23.417969 22.023438 -23.230469 22.347656 -23.121094 C 22.4375 -23.09375 22.519531 -23.070312 22.59375 -23.0625 C 22.609375 -23.058594 22.621094 -23.058594 22.628906 -23.058594 C 22.625 -23.058594 22.613281 -23.058594 22.601562 -23.058594 L 2.890625 -23.058594 C 2.878906 -23.058594 2.871094 -23.058594 2.863281 -23.058594 C 2.871094 -23.058594 2.882812 -23.058594 2.898438 -23.0625 C 2.972656 -23.070312 3.054688 -23.09375 3.144531 -23.121094 C 3.46875 -23.230469 3.765625 -23.417969 4.039062 -23.683594 C 4.328125 -23.964844 4.53125 -24.28125 4.652344 -24.628906 C 4.6875 -24.730469 4.710938 -24.824219 4.726562 -24.90625 C 4.726562 -24.925781 4.730469 -24.941406 4.730469 -24.953125 C 4.730469 -24.953125 4.730469 -24.949219 4.730469 -24.9375 C 4.730469 -25.015625 4.703125 -25.128906 4.648438 -25.285156 C 4.535156 -25.613281 4.34375 -25.90625 4.082031 -26.171875 C 3.8125 -26.441406 3.511719 -26.632812 3.179688 -26.746094 C 3.085938 -26.78125 2.996094 -26.800781 2.917969 -26.8125 C 2.898438 -26.816406 2.886719 -26.820312 2.875 -26.820312 C 2.875 -26.820312 2.878906 -26.820312 2.890625 -26.820312 L 13.953125 -26.820312 L 13.953125 -3.324219 C 13.953125 -3.28125 13.957031 -3.253906 13.957031 -3.238281 C 13.953125 -3.277344 13.9375 -3.324219 13.917969 -3.378906 C 13.839844 -3.605469 13.707031 -3.816406 13.519531 -4.007812 C 13.316406 -4.210938 13.09375 -4.359375 12.847656 -4.449219 C 12.78125 -4.472656 12.722656 -4.488281 12.675781 -4.496094 C 12.683594 -4.492188 12.707031 -4.492188 12.746094 -4.492188 Z M 12.746094 -4.492188 "/></g></g></g><g fill="#ffffff" fill-opacity="1"><g transform="translate(136.47121, 224.217261)"><g><path d="M 3.839844 5.207031 C 2.015625 5.207031 0.410156 4.726562 -0.972656 3.773438 C -1.777344 3.21875 -2.4375 2.542969 -2.957031 1.742188 C -3.46875 0.953125 -3.820312 0.0820312 -4.007812 -0.867188 C -4.332031 -2.53125 -4.109375 -4.25 -3.335938 -6.019531 L -3.3125 -6.070312 L 6.566406 -27.339844 C 7.414062 -29.175781 8.558594 -30.582031 10 -31.5625 C 11.523438 -32.597656 13.230469 -33.113281 15.121094 -33.113281 C 17.042969 -33.113281 18.761719 -32.578125 20.273438 -31.511719 C 21.625 -30.558594 22.734375 -29.195312 23.597656 -27.417969 L 33.492188 -6.121094 L 29.09375 -4.078125 L 33.433594 -6.246094 C 34.328125 -4.453125 34.628906 -2.6875 34.328125 -0.953125 C 34.160156 0.0117188 33.828125 0.898438 33.324219 1.699219 C 32.800781 2.539062 32.125 3.238281 31.296875 3.808594 C 29.929688 4.738281 28.351562 5.207031 26.5625 5.207031 C 24.332031 5.207031 22.480469 4.589844 21.015625 3.363281 C 19.851562 2.386719 18.894531 1.015625 18.140625 -0.753906 L 9.132812 -21.933594 L 38.128906 -0.8125 L -8.136719 -0.8125 L 20.980469 -21.726562 L 12.0625 -0.753906 C 11.300781 0.945312 10.433594 2.25 9.472656 3.164062 C 8.035156 4.523438 6.15625 5.207031 3.839844 5.207031 Z M 3.839844 -4.492188 C 3.882812 -4.492188 3.914062 -4.492188 3.925781 -4.496094 C 3.878906 -4.488281 3.820312 -4.476562 3.75 -4.453125 C 3.410156 -4.347656 3.097656 -4.15625 2.800781 -3.875 C 2.761719 -3.839844 2.734375 -3.8125 2.71875 -3.792969 C 2.734375 -3.8125 2.757812 -3.847656 2.789062 -3.894531 C 2.90625 -4.078125 3.023438 -4.296875 3.136719 -4.550781 L 5.273438 -9.578125 L 9.738281 -7.679688 L 12.566406 -3.742188 L 9.757812 -1.722656 L 6.925781 -5.660156 L 6.925781 -10.511719 L 23.238281 -10.511719 L 23.238281 -5.660156 L 20.378906 -1.742188 L 17.609375 -3.761719 L 20.464844 -7.679688 L 24.929688 -9.578125 L 27.066406 -4.550781 C 27.171875 -4.296875 27.273438 -4.101562 27.359375 -3.96875 C 27.371094 -3.953125 27.378906 -3.941406 27.382812 -3.933594 C 27.382812 -3.933594 27.382812 -3.9375 27.375 -3.945312 C 27.34375 -3.984375 27.296875 -4.027344 27.238281 -4.074219 C 27.003906 -4.269531 26.765625 -4.40625 26.523438 -4.476562 C 26.480469 -4.488281 26.449219 -4.496094 26.425781 -4.5 C 26.457031 -4.496094 26.503906 -4.492188 26.5625 -4.492188 C 26.515625 -4.492188 26.449219 -4.480469 26.359375 -4.457031 C 26.175781 -4.40625 25.996094 -4.320312 25.824219 -4.203125 C 25.535156 -4.003906 25.296875 -3.75 25.101562 -3.441406 C 24.929688 -3.167969 24.820312 -2.890625 24.773438 -2.609375 C 24.730469 -2.359375 24.726562 -2.132812 24.769531 -1.925781 C 24.777344 -1.886719 24.785156 -1.851562 24.792969 -1.828125 C 24.789062 -1.847656 24.773438 -1.871094 24.757812 -1.910156 L 24.726562 -1.972656 L 14.878906 -23.171875 C 14.777344 -23.378906 14.683594 -23.539062 14.597656 -23.648438 C 14.589844 -23.65625 14.582031 -23.667969 14.578125 -23.671875 L 14.582031 -23.667969 C 14.605469 -23.644531 14.640625 -23.617188 14.679688 -23.589844 C 14.769531 -23.523438 14.871094 -23.476562 14.980469 -23.445312 C 15.042969 -23.425781 15.089844 -23.414062 15.121094 -23.414062 C 15.21875 -23.414062 15.328125 -23.457031 15.453125 -23.539062 C 15.519531 -23.585938 15.566406 -23.621094 15.585938 -23.648438 C 15.519531 -23.566406 15.445312 -23.433594 15.363281 -23.25 L 5.507812 -2.035156 L 1.109375 -4.078125 L 5.550781 -2.132812 C 5.535156 -2.09375 5.523438 -2.066406 5.515625 -2.046875 C 5.523438 -2.0625 5.527344 -2.089844 5.535156 -2.125 C 5.5625 -2.308594 5.554688 -2.511719 5.511719 -2.734375 C 5.457031 -3.011719 5.34375 -3.28125 5.175781 -3.542969 C 4.996094 -3.816406 4.785156 -4.035156 4.535156 -4.207031 C 4.367188 -4.324219 4.195312 -4.410156 4.015625 -4.457031 C 3.929688 -4.480469 3.871094 -4.492188 3.839844 -4.492188 Z M 19.515625 -18.433594 L 11.164062 1.507812 L 0.898438 -16.089844 L 29.304688 -16.089844 L 19.058594 1.476562 L 10.652344 -18.421875 L 15.121094 -20.308594 L 15.121094 -15.457031 L 15.042969 -15.457031 L 15.042969 -20.308594 Z M 11.816406 -25.15625 L 18.335938 -25.15625 L 24.21875 -11.230469 L 19.753906 -9.34375 L 15.5625 -11.785156 L 16.671875 -13.6875 L 20.859375 -11.242188 L 20.859375 -6.394531 L 9.34375 -6.394531 L 9.34375 -11.242188 L 13.53125 -13.6875 L 14.640625 -11.785156 L 10.449219 -9.34375 L 5.976562 -11.214844 L 10.570312 -22.179688 Z M 11.816406 -25.15625 "/></g></g></g><g fill="#ffffff" fill-opacity="1"><g transform="translate(164.489023, 224.217261)"><g><path d="M 6.214844 4.847656 C 5.074219 4.847656 4.011719 4.675781 3.03125 4.324219 C 1.898438 3.917969 0.910156 3.296875 0.0742188 2.460938 C -0.761719 1.621094 -1.382812 0.636719 -1.789062 -0.5 C -2.140625 -1.480469 -2.316406 -2.539062 -2.316406 -3.679688 L -2.316406 -24.265625 C -2.316406 -25.40625 -2.148438 -26.460938 -1.808594 -27.433594 C -1.40625 -28.585938 -0.785156 -29.585938 0.0546875 -30.425781 C 0.890625 -31.261719 1.878906 -31.878906 3.015625 -32.28125 C 3.988281 -32.625 5.039062 -32.796875 6.175781 -32.796875 C 7.320312 -32.796875 8.375 -32.625 9.347656 -32.285156 C 10.511719 -31.878906 11.511719 -31.246094 12.351562 -30.390625 C 13.175781 -29.546875 13.785156 -28.554688 14.175781 -27.402344 C 14.503906 -26.441406 14.667969 -25.394531 14.667969 -24.265625 L 14.667969 -6.054688 L 9.816406 -6.054688 L 9.816406 -10.90625 L 19.476562 -10.90625 C 20.5 -10.90625 21.457031 -10.757812 22.339844 -10.464844 C 23.410156 -10.109375 24.339844 -9.550781 25.132812 -8.796875 C 25.957031 -8.015625 26.5625 -7.082031 26.957031 -5.992188 C 27.289062 -5.085938 27.453125 -4.105469 27.453125 -3.046875 C 27.453125 -1.996094 27.289062 -1.015625 26.964844 -0.109375 C 26.578125 0.964844 25.980469 1.894531 25.179688 2.679688 C 24.386719 3.453125 23.453125 4.023438 22.375 4.390625 C 21.480469 4.695312 20.515625 4.847656 19.476562 4.847656 Z M 6.214844 -4.847656 L 19.476562 -4.847656 L 19.472656 -4.847656 C 19.402344 -4.835938 19.324219 -4.816406 19.238281 -4.785156 C 18.933594 -4.683594 18.65625 -4.507812 18.40625 -4.261719 C 18.144531 -4.007812 17.953125 -3.71875 17.835938 -3.394531 C 17.78125 -3.238281 17.753906 -3.125 17.753906 -3.046875 C 17.753906 -2.96875 17.78125 -2.847656 17.839844 -2.683594 C 17.964844 -2.34375 18.167969 -2.039062 18.449219 -1.769531 C 18.699219 -1.53125 18.976562 -1.363281 19.273438 -1.261719 C 19.355469 -1.234375 19.425781 -1.21875 19.488281 -1.207031 C 19.5 -1.207031 19.507812 -1.207031 19.511719 -1.207031 C 19.503906 -1.207031 19.492188 -1.207031 19.476562 -1.207031 L 4.96875 -1.207031 L 4.96875 -24.265625 C 4.96875 -24.324219 4.964844 -24.367188 4.960938 -24.394531 C 4.964844 -24.367188 4.976562 -24.328125 4.992188 -24.277344 C 5.074219 -24.035156 5.21875 -23.8125 5.421875 -23.605469 C 5.640625 -23.382812 5.878906 -23.222656 6.140625 -23.132812 C 6.199219 -23.113281 6.25 -23.097656 6.285156 -23.09375 C 6.265625 -23.097656 6.230469 -23.097656 6.175781 -23.097656 C 6.132812 -23.097656 6.105469 -23.097656 6.089844 -23.09375 C 6.132812 -23.101562 6.183594 -23.113281 6.246094 -23.136719 C 6.488281 -23.222656 6.710938 -23.367188 6.914062 -23.566406 C 7.121094 -23.773438 7.265625 -24 7.351562 -24.246094 C 7.371094 -24.300781 7.382812 -24.347656 7.386719 -24.378906 C 7.382812 -24.359375 7.382812 -24.320312 7.382812 -24.265625 L 7.382812 -3.679688 C 7.382812 -3.644531 7.382812 -3.617188 7.386719 -3.609375 C 7.378906 -3.652344 7.363281 -3.703125 7.34375 -3.765625 C 7.257812 -3.996094 7.121094 -4.207031 6.933594 -4.398438 C 6.742188 -4.589844 6.53125 -4.726562 6.300781 -4.808594 C 6.238281 -4.832031 6.1875 -4.84375 6.140625 -4.851562 C 6.152344 -4.851562 6.175781 -4.847656 6.214844 -4.847656 Z M 6.214844 -4.847656 "/></g></g></g><g fill="#3dbdec" fill-opacity="1"><g transform="translate(75.80613, 224.217261)"><g><path d="M 14.71875 0.359375 C 13.71875 0.359375 12.90625 0.148438 12.28125 -0.265625 C 11.664062 -0.691406 11.144531 -1.367188 10.71875 -2.296875 L 1.140625 -23.4375 C 0.722656 -24.351562 0.59375 -25.179688 0.75 -25.921875 C 0.90625 -26.660156 1.273438 -27.234375 1.859375 -27.640625 C 2.441406 -28.054688 3.164062 -28.265625 4.03125 -28.265625 C 5.113281 -28.265625 5.925781 -28.023438 6.46875 -27.546875 C 7.007812 -27.066406 7.476562 -26.367188 7.875 -25.453125 L 15.953125 -6.765625 L 13.734375 -6.765625 L 21.8125 -25.484375 C 22.207031 -26.410156 22.679688 -27.101562 23.234375 -27.5625 C 23.785156 -28.03125 24.5625 -28.265625 25.5625 -28.265625 C 26.382812 -28.265625 27.070312 -28.054688 27.625 -27.640625 C 28.175781 -27.234375 28.523438 -26.660156 28.671875 -25.921875 C 28.816406 -25.179688 28.679688 -24.351562 28.265625 -23.4375 L 18.640625 -2.296875 C 18.242188 -1.367188 17.742188 -0.691406 17.140625 -0.265625 C 16.535156 0.148438 15.726562 0.359375 14.71875 0.359375 Z M 14.71875 0.359375 "/></g></g></g><g fill="#3dbdec" fill-opacity="1"><g transform="translate(102.992884, 224.217261)"><g><path d="M 6.171875 0.359375 C 5.015625 0.359375 4.117188 0.0351562 3.484375 -0.609375 C 2.847656 -1.253906 2.53125 -2.171875 2.53125 -3.359375 L 2.53125 -24.53125 C 2.53125 -25.75 2.847656 -26.675781 3.484375 -27.3125 C 4.117188 -27.945312 5.015625 -28.265625 6.171875 -28.265625 C 7.359375 -28.265625 8.257812 -27.945312 8.875 -27.3125 C 9.5 -26.675781 9.8125 -25.75 9.8125 -24.53125 L 9.8125 -3.359375 C 9.8125 -2.171875 9.507812 -1.253906 8.90625 -0.609375 C 8.300781 0.0351562 7.390625 0.359375 6.171875 0.359375 Z M 6.171875 0.359375 "/></g></g></g><g fill="#3dbdec" fill-opacity="1"><g transform="translate(113.162733, 224.217261)"><g><path d="M 12.75 0.359375 C 11.582031 0.359375 10.679688 0.0351562 10.046875 -0.609375 C 9.421875 -1.253906 9.109375 -2.160156 9.109375 -3.328125 L 9.109375 -21.96875 L 2.890625 -21.96875 C 1.910156 -21.96875 1.160156 -22.222656 0.640625 -22.734375 C 0.128906 -23.253906 -0.125 -23.988281 -0.125 -24.9375 C -0.125 -25.914062 0.128906 -26.65625 0.640625 -27.15625 C 1.160156 -27.65625 1.910156 -27.90625 2.890625 -27.90625 L 22.59375 -27.90625 C 23.570312 -27.90625 24.316406 -27.65625 24.828125 -27.15625 C 25.347656 -26.65625 25.609375 -25.914062 25.609375 -24.9375 C 25.609375 -23.988281 25.347656 -23.253906 24.828125 -22.734375 C 24.316406 -22.222656 23.570312 -21.96875 22.59375 -21.96875 L 16.390625 -21.96875 L 16.390625 -3.328125 C 16.390625 -2.160156 16.082031 -1.253906 15.46875 -0.609375 C 14.863281 0.0351562 13.957031 0.359375 12.75 0.359375 Z M 12.75 0.359375 "/></g></g></g><g fill="#3dbdec" fill-opacity="1"><g transform="translate(136.47121, 224.217261)"><g><path d="M 3.84375 0.359375 C 3.019531 0.359375 2.332031 0.164062 1.78125 -0.21875 C 1.226562 -0.601562 0.882812 -1.128906 0.75 -1.796875 C 0.613281 -2.472656 0.734375 -3.234375 1.109375 -4.078125 L 10.96875 -25.296875 C 11.4375 -26.316406 12.019531 -27.066406 12.71875 -27.546875 C 13.414062 -28.023438 14.21875 -28.265625 15.125 -28.265625 C 16.019531 -28.265625 16.800781 -28.023438 17.46875 -27.546875 C 18.144531 -27.066406 18.734375 -26.316406 19.234375 -25.296875 L 29.09375 -4.078125 C 29.507812 -3.234375 29.65625 -2.46875 29.53125 -1.78125 C 29.414062 -1.09375 29.085938 -0.5625 28.546875 -0.1875 C 28.015625 0.175781 27.351562 0.359375 26.5625 0.359375 C 25.5 0.359375 24.679688 0.125 24.109375 -0.34375 C 23.546875 -0.820312 23.039062 -1.59375 22.59375 -2.65625 L 20.46875 -7.671875 L 23.234375 -5.65625 L 6.921875 -5.65625 L 9.734375 -7.671875 L 7.59375 -2.65625 C 7.125 -1.59375 6.632812 -0.820312 6.125 -0.34375 C 5.625 0.125 4.863281 0.359375 3.84375 0.359375 Z M 15.046875 -20.296875 L 10.453125 -9.34375 L 9.34375 -11.234375 L 20.859375 -11.234375 L 19.75 -9.34375 L 15.125 -20.296875 Z M 15.046875 -20.296875 "/></g></g></g><g fill="#3dbdec" fill-opacity="1"><g transform="translate(164.489023, 224.217261)"><g><path d="M 6.21875 0 C 5.050781 0 4.144531 -0.320312 3.5 -0.96875 C 2.851562 -1.613281 2.53125 -2.519531 2.53125 -3.6875 L 2.53125 -24.265625 C 2.53125 -25.453125 2.847656 -26.359375 3.484375 -26.984375 C 4.117188 -27.617188 5.015625 -27.9375 6.171875 -27.9375 C 7.359375 -27.9375 8.257812 -27.617188 8.875 -26.984375 C 9.5 -26.359375 9.8125 -25.453125 9.8125 -24.265625 L 9.8125 -6.0625 L 19.46875 -6.0625 C 20.46875 -6.0625 21.238281 -5.800781 21.78125 -5.28125 C 22.320312 -4.769531 22.59375 -4.023438 22.59375 -3.046875 C 22.59375 -2.066406 22.320312 -1.3125 21.78125 -0.78125 C 21.238281 -0.257812 20.46875 0 19.46875 0 Z M 6.21875 0 "/></g></g></g><g fill="#ffffff" fill-opacity="1"><g transform="translate(183.469592, 216.342262)"><g><path d="M 1.933594 -12.582031 C 2.496094 -12.582031 3.019531 -12.445312 3.492188 -12.164062 C 3.933594 -11.90625 4.296875 -11.550781 4.585938 -11.09375 L 8.003906 -5.746094 L 6.191406 -4.585938 L 4.375 -5.738281 L 7.796875 -11.132812 L 7.808594 -11.152344 C 8.136719 -11.640625 8.554688 -12.007812 9.066406 -12.253906 C 9.519531 -12.472656 9.984375 -12.582031 10.46875 -12.582031 C 10.84375 -12.582031 11.207031 -12.519531 11.554688 -12.390625 C 11.898438 -12.261719 12.214844 -12.074219 12.5 -11.832031 C 12.859375 -11.527344 13.125 -11.15625 13.304688 -10.722656 C 13.457031 -10.347656 13.535156 -9.945312 13.535156 -9.515625 L 13.535156 -0.851562 C 13.535156 -0.378906 13.4375 0.0585938 13.238281 0.460938 C 13.019531 0.910156 12.703125 1.277344 12.285156 1.5625 C 11.714844 1.953125 11.089844 2.148438 10.417969 2.148438 C 9.703125 2.148438 9.058594 1.9375 8.488281 1.511719 C 8.09375 1.21875 7.796875 0.847656 7.59375 0.402344 C 7.421875 0.015625 7.335938 -0.402344 7.335938 -0.851562 L 7.335938 -6.371094 L 9.484375 -6.371094 L 11.296875 -5.214844 L 8.855469 -1.398438 L 7.042969 -2.554688 L 8.941406 -1.542969 C 8.632812 -0.96875 8.1875 -0.539062 7.609375 -0.257812 C 7.15625 -0.0390625 6.683594 0.0703125 6.191406 0.0703125 C 5.660156 0.0703125 5.148438 -0.0664062 4.660156 -0.335938 C 4.113281 -0.632812 3.699219 -1.050781 3.410156 -1.59375 L 5.308594 -2.605469 L 3.496094 -1.441406 L 1.089844 -5.195312 L 2.898438 -6.355469 L 5.050781 -6.355469 L 5.050781 -0.851562 C 5.050781 -0.386719 4.953125 0.0429688 4.765625 0.441406 C 4.554688 0.890625 4.242188 1.257812 3.832031 1.546875 C 3.257812 1.949219 2.632812 2.148438 1.949219 2.148438 C 1.246094 2.148438 0.609375 1.941406 0.0351562 1.53125 C -0.367188 1.238281 -0.671875 0.871094 -0.878906 0.421875 C -1.058594 0.03125 -1.152344 -0.394531 -1.152344 -0.851562 L -1.152344 -9.5 C -1.152344 -9.933594 -1.070312 -10.339844 -0.910156 -10.71875 C -0.734375 -11.132812 -0.480469 -11.488281 -0.140625 -11.789062 C 0.144531 -12.042969 0.460938 -12.238281 0.804688 -12.371094 C 1.164062 -12.511719 1.542969 -12.582031 1.933594 -12.582031 Z M 1.933594 -8.285156 C 2.082031 -8.285156 2.230469 -8.3125 2.375 -8.371094 C 2.503906 -8.417969 2.617188 -8.488281 2.710938 -8.570312 C 2.859375 -8.703125 2.972656 -8.859375 3.050781 -9.046875 C 3.117188 -9.203125 3.148438 -9.351562 3.148438 -9.5 L 3.148438 -0.851562 C 3.148438 -1.023438 3.109375 -1.199219 3.023438 -1.378906 C 2.917969 -1.613281 2.757812 -1.808594 2.554688 -1.957031 C 2.375 -2.085938 2.171875 -2.148438 1.949219 -2.148438 C 1.726562 -2.148438 1.527344 -2.089844 1.359375 -1.972656 C 1.152344 -1.824219 0.992188 -1.636719 0.882812 -1.402344 C 0.792969 -1.214844 0.75 -1.03125 0.75 -0.851562 L 0.75 -13.683594 L 7.164062 -3.691406 L 7.203125 -3.617188 C 7.089844 -3.828125 6.929688 -3.992188 6.726562 -4.105469 C 6.574219 -4.1875 6.394531 -4.230469 6.191406 -4.230469 C 6.027344 -4.230469 5.878906 -4.195312 5.738281 -4.132812 C 5.476562 -4.003906 5.277344 -3.816406 5.144531 -3.566406 L 5.1875 -3.640625 L 11.632812 -13.722656 L 11.632812 -0.851562 C 11.632812 -1.015625 11.59375 -1.1875 11.515625 -1.359375 C 11.410156 -1.59375 11.257812 -1.785156 11.050781 -1.9375 C 10.863281 -2.078125 10.652344 -2.148438 10.417969 -2.148438 C 10.203125 -2.148438 10.015625 -2.09375 9.859375 -1.988281 C 9.648438 -1.84375 9.488281 -1.65625 9.375 -1.421875 C 9.28125 -1.230469 9.234375 -1.039062 9.234375 -0.851562 L 9.234375 -9.515625 C 9.234375 -9.382812 9.265625 -9.242188 9.324219 -9.09375 C 9.410156 -8.882812 9.539062 -8.707031 9.710938 -8.5625 C 9.8125 -8.476562 9.925781 -8.410156 10.058594 -8.359375 C 10.191406 -8.308594 10.328125 -8.285156 10.46875 -8.285156 C 10.640625 -8.285156 10.796875 -8.316406 10.933594 -8.382812 C 11.128906 -8.476562 11.28125 -8.605469 11.386719 -8.765625 L 9.597656 -9.960938 L 11.414062 -8.808594 L 6.199219 -0.582031 L 0.953125 -8.792969 C 1.035156 -8.664062 1.152344 -8.550781 1.3125 -8.457031 C 1.511719 -8.34375 1.71875 -8.285156 1.933594 -8.285156 Z M 1.933594 -8.285156 "/></g></g></g><g fill="#ffffff" fill-opacity="1"><g transform="translate(198.597605, 216.342262)"><g><path d="M 8.535156 -3.789062 C 8.957031 -3.789062 9.351562 -3.710938 9.722656 -3.5625 C 10.148438 -3.390625 10.511719 -3.128906 10.8125 -2.785156 C 11.050781 -2.515625 11.234375 -2.21875 11.367188 -1.898438 C 11.511719 -1.542969 11.585938 -1.171875 11.585938 -0.785156 C 11.585938 -0.40625 11.511719 -0.0390625 11.371094 0.308594 C 11.238281 0.632812 11.050781 0.925781 10.8125 1.191406 C 10.496094 1.542969 10.113281 1.796875 9.664062 1.960938 C 9.316406 2.085938 8.9375 2.148438 8.535156 2.148438 L 2.03125 2.148438 C 1.613281 2.148438 1.222656 2.082031 0.851562 1.949219 C 0.433594 1.796875 0.0664062 1.5625 -0.253906 1.253906 C -0.558594 0.957031 -0.792969 0.617188 -0.957031 0.234375 C -1.117188 -0.148438 -1.199219 -0.554688 -1.199219 -0.984375 L -1.199219 -9.46875 C -1.199219 -9.894531 -1.117188 -10.304688 -0.949219 -10.691406 C -0.785156 -11.0625 -0.554688 -11.394531 -0.253906 -11.6875 C 0.0664062 -12 0.433594 -12.230469 0.851562 -12.382812 C 1.222656 -12.515625 1.613281 -12.582031 2.03125 -12.582031 L 8.535156 -12.582031 C 8.933594 -12.582031 9.304688 -12.519531 9.652344 -12.394531 C 10.097656 -12.234375 10.480469 -11.980469 10.789062 -11.632812 C 11.035156 -11.359375 11.222656 -11.054688 11.351562 -10.71875 C 11.484375 -10.375 11.550781 -10.019531 11.550781 -9.648438 C 11.550781 -9.277344 11.484375 -8.914062 11.34375 -8.566406 C 11.222656 -8.257812 11.046875 -7.96875 10.824219 -7.703125 C 10.523438 -7.347656 10.152344 -7.078125 9.714844 -6.902344 C 9.347656 -6.753906 8.957031 -6.679688 8.535156 -6.679688 L 2.816406 -6.679688 L 2.816406 -8.828125 L 4.96875 -8.828125 L 4.96875 -5.960938 L 2.816406 -5.960938 L 2.816406 -8.113281 L 8.238281 -8.113281 C 8.65625 -8.113281 9.042969 -8.039062 9.40625 -7.898438 C 9.847656 -7.722656 10.222656 -7.453125 10.523438 -7.089844 C 10.753906 -6.816406 10.929688 -6.519531 11.050781 -6.199219 C 11.175781 -5.859375 11.242188 -5.507812 11.242188 -5.144531 C 11.242188 -4.773438 11.171875 -4.417969 11.039062 -4.074219 C 10.914062 -3.753906 10.734375 -3.460938 10.503906 -3.195312 C 10.195312 -2.84375 9.824219 -2.582031 9.382812 -2.410156 C 9.027344 -2.277344 8.648438 -2.207031 8.238281 -2.207031 L 2.816406 -2.207031 L 2.816406 -4.355469 L 4.96875 -4.355469 L 4.96875 -1.636719 L 2.816406 -1.636719 L 2.816406 -3.789062 Z M 8.535156 0.511719 L 0.667969 0.511719 L 0.667969 -6.507812 L 8.238281 -6.507812 C 8.113281 -6.507812 7.980469 -6.480469 7.839844 -6.425781 C 7.613281 -6.335938 7.417969 -6.199219 7.253906 -6.011719 C 7.164062 -5.90625 7.089844 -5.785156 7.039062 -5.648438 C 6.972656 -5.484375 6.941406 -5.316406 6.941406 -5.144531 C 6.941406 -4.984375 6.96875 -4.832031 7.027344 -4.683594 C 7.078125 -4.546875 7.144531 -4.429688 7.230469 -4.328125 C 7.390625 -4.132812 7.589844 -3.992188 7.816406 -3.902344 C 7.964844 -3.84375 8.105469 -3.8125 8.238281 -3.8125 L 0.667969 -3.8125 L 0.667969 -10.980469 L 8.535156 -10.980469 C 8.398438 -10.980469 8.253906 -10.949219 8.101562 -10.886719 C 7.878906 -10.796875 7.691406 -10.660156 7.539062 -10.476562 C 7.460938 -10.386719 7.398438 -10.277344 7.347656 -10.15625 C 7.285156 -9.992188 7.253906 -9.824219 7.253906 -9.648438 C 7.253906 -9.484375 7.28125 -9.320312 7.34375 -9.164062 C 7.402344 -9.011719 7.484375 -8.875 7.589844 -8.761719 C 7.757812 -8.574219 7.957031 -8.4375 8.1875 -8.351562 C 8.3125 -8.308594 8.429688 -8.285156 8.535156 -8.285156 L 2.03125 -8.285156 C 2.121094 -8.285156 2.21875 -8.304688 2.324219 -8.34375 C 2.484375 -8.398438 2.621094 -8.488281 2.742188 -8.605469 C 2.847656 -8.707031 2.933594 -8.832031 2.996094 -8.980469 C 3.066406 -9.136719 3.101562 -9.300781 3.101562 -9.46875 L 3.101562 -0.984375 C 3.101562 -1.136719 3.066406 -1.289062 3.003906 -1.441406 C 2.941406 -1.59375 2.851562 -1.722656 2.742188 -1.828125 C 2.621094 -1.945312 2.484375 -2.035156 2.324219 -2.089844 C 2.21875 -2.128906 2.121094 -2.148438 2.03125 -2.148438 L 8.535156 -2.148438 C 8.4375 -2.148438 8.324219 -2.128906 8.203125 -2.082031 C 7.976562 -2.003906 7.78125 -1.867188 7.617188 -1.683594 C 7.523438 -1.582031 7.449219 -1.457031 7.390625 -1.316406 C 7.320312 -1.148438 7.285156 -0.96875 7.285156 -0.785156 C 7.285156 -0.609375 7.320312 -0.4375 7.386719 -0.273438 C 7.4375 -0.148438 7.503906 -0.0390625 7.582031 0.0507812 C 7.726562 0.214844 7.898438 0.339844 8.101562 0.421875 C 8.25 0.480469 8.394531 0.511719 8.535156 0.511719 Z M 8.535156 0.511719 "/></g></g></g><g fill="#ffffff" fill-opacity="1"><g transform="translate(211.057118, 216.342262)"><g><path d="M 4.832031 -12.582031 C 6.214844 -12.582031 7.449219 -12.265625 8.527344 -11.632812 C 9.617188 -10.988281 10.464844 -10.101562 11.070312 -8.960938 C 11.652344 -7.867188 11.945312 -6.613281 11.945312 -5.207031 C 11.945312 -3.816406 11.65625 -2.570312 11.074219 -1.46875 C 10.46875 -0.320312 9.613281 0.574219 8.515625 1.210938 C 7.441406 1.835938 6.210938 2.148438 4.832031 2.148438 L 1.457031 2.148438 C 1.050781 2.148438 0.660156 2.082031 0.289062 1.941406 C -0.0898438 1.796875 -0.433594 1.589844 -0.738281 1.3125 C -1.0625 1.023438 -1.3125 0.691406 -1.488281 0.3125 C -1.679688 -0.0898438 -1.773438 -0.515625 -1.773438 -0.964844 L -1.773438 -9.484375 C -1.773438 -9.9375 -1.675781 -10.367188 -1.484375 -10.773438 C -1.304688 -11.152344 -1.046875 -11.488281 -0.714844 -11.777344 C -0.410156 -12.042969 -0.0664062 -12.246094 0.308594 -12.382812 C 0.671875 -12.515625 1.054688 -12.582031 1.457031 -12.582031 Z M 4.832031 -8.285156 L 1.457031 -8.285156 C 1.5625 -8.285156 1.671875 -8.304688 1.785156 -8.34375 C 1.90625 -8.390625 2.015625 -8.453125 2.109375 -8.535156 C 2.226562 -8.636719 2.324219 -8.769531 2.398438 -8.925781 C 2.484375 -9.105469 2.527344 -9.292969 2.527344 -9.484375 L 2.527344 -0.964844 C 2.527344 -1.15625 2.484375 -1.339844 2.402344 -1.515625 C 2.332031 -1.664062 2.242188 -1.789062 2.132812 -1.886719 C 2.039062 -1.972656 1.929688 -2.035156 1.804688 -2.082031 C 1.6875 -2.128906 1.570312 -2.148438 1.457031 -2.148438 L 4.832031 -2.148438 C 5.441406 -2.148438 5.949219 -2.269531 6.355469 -2.507812 C 6.742188 -2.730469 7.046875 -3.054688 7.269531 -3.476562 C 7.519531 -3.949219 7.644531 -4.527344 7.644531 -5.207031 C 7.644531 -5.898438 7.523438 -6.476562 7.273438 -6.945312 C 7.050781 -7.367188 6.738281 -7.695312 6.347656 -7.925781 C 5.941406 -8.164062 5.433594 -8.285156 4.832031 -8.285156 Z M 4.832031 -3.773438 C 5.019531 -3.773438 5.167969 -3.808594 5.277344 -3.878906 C 5.402344 -3.957031 5.507812 -4.082031 5.589844 -4.253906 C 5.703125 -4.496094 5.761719 -4.8125 5.761719 -5.207031 C 5.761719 -5.609375 5.703125 -5.9375 5.582031 -6.195312 C 5.5 -6.371094 5.398438 -6.496094 5.277344 -6.574219 C 5.167969 -6.644531 5.019531 -6.679688 4.832031 -6.679688 L 2.242188 -6.679688 L 2.242188 -8.828125 L 4.394531 -8.828125 L 4.394531 -1.621094 L 2.242188 -1.621094 L 2.242188 -3.773438 Z M 4.832031 0.527344 L 0.09375 0.527344 L 0.09375 -10.980469 L 4.832031 -10.980469 C 5.867188 -10.980469 6.792969 -10.714844 7.613281 -10.183594 C 8.421875 -9.660156 9.042969 -8.941406 9.472656 -8.023438 C 9.863281 -7.1875 10.0625 -6.25 10.0625 -5.207031 C 10.0625 -4.164062 9.863281 -3.222656 9.464844 -2.394531 C 9.035156 -1.496094 8.417969 -0.785156 7.613281 -0.265625 C 6.792969 0.261719 5.867188 0.527344 4.832031 0.527344 Z M 4.832031 0.527344 "/></g></g></g><g fill="#ffffff" fill-opacity="1"><g transform="translate(223.811318, 216.342262)"><g><path d="M -1.414062 -9.550781 C -1.414062 -10.003906 -1.328125 -10.421875 -1.15625 -10.8125 C -0.953125 -11.28125 -0.640625 -11.664062 -0.226562 -11.964844 C 0.34375 -12.378906 0.984375 -12.582031 1.6875 -12.582031 C 2.378906 -12.582031 3.015625 -12.382812 3.585938 -11.980469 C 4.007812 -11.683594 4.324219 -11.300781 4.539062 -10.832031 C 4.714844 -10.4375 4.804688 -10.011719 4.804688 -9.550781 L 4.804688 -0.835938 C 4.804688 -0.367188 4.707031 0.0664062 4.511719 0.464844 C 4.296875 0.902344 3.992188 1.261719 3.585938 1.546875 C 3.015625 1.949219 2.378906 2.148438 1.6875 2.148438 C 1 2.148438 0.371094 1.953125 -0.195312 1.5625 C -0.609375 1.273438 -0.925781 0.902344 -1.136719 0.445312 C -1.320312 0.0507812 -1.414062 -0.375 -1.414062 -0.835938 Z M 2.886719 -9.550781 L 2.886719 -0.835938 C 2.886719 -1.011719 2.84375 -1.191406 2.757812 -1.375 C 2.644531 -1.621094 2.476562 -1.820312 2.257812 -1.96875 C 2.085938 -2.089844 1.894531 -2.148438 1.6875 -2.148438 C 1.472656 -2.148438 1.285156 -2.089844 1.113281 -1.972656 C 0.914062 -1.832031 0.757812 -1.644531 0.644531 -1.417969 C 0.550781 -1.222656 0.503906 -1.027344 0.503906 -0.835938 L 0.503906 -9.550781 C 0.503906 -9.394531 0.542969 -9.230469 0.617188 -9.0625 C 0.730469 -8.816406 0.894531 -8.617188 1.113281 -8.460938 C 1.285156 -8.34375 1.472656 -8.285156 1.6875 -8.285156 C 1.910156 -8.285156 2.113281 -8.347656 2.289062 -8.476562 C 2.507812 -8.636719 2.671875 -8.835938 2.78125 -9.082031 C 2.851562 -9.246094 2.886719 -9.402344 2.886719 -9.550781 Z M 2.886719 -9.550781 "/></g></g></g><g fill="#ffffff" fill-opacity="1"><g transform="translate(229.411335, 216.342262)"><g><path d="M 5.734375 -12.746094 C 6.785156 -12.746094 7.769531 -12.585938 8.6875 -12.265625 C 9.722656 -11.90625 10.632812 -11.285156 11.417969 -10.40625 C 11.699219 -10.082031 11.90625 -9.75 12.042969 -9.402344 C 12.226562 -8.945312 12.289062 -8.476562 12.234375 -8 C 12.1875 -7.605469 12.066406 -7.234375 11.875 -6.894531 C 11.683594 -6.554688 11.433594 -6.257812 11.117188 -6.011719 C 10.816406 -5.773438 10.488281 -5.597656 10.125 -5.488281 C 9.78125 -5.382812 9.421875 -5.335938 9.054688 -5.355469 C 8.613281 -5.375 8.199219 -5.484375 7.800781 -5.691406 C 7.472656 -5.863281 7.171875 -6.089844 6.894531 -6.378906 L 6.875 -6.402344 L 6.855469 -6.421875 C 6.769531 -6.515625 6.695312 -6.585938 6.625 -6.632812 C 6.597656 -6.652344 6.578125 -6.664062 6.570312 -6.664062 C 6.3125 -6.738281 6.027344 -6.777344 5.714844 -6.777344 C 5.414062 -6.777344 5.167969 -6.722656 4.984375 -6.617188 C 4.816406 -6.519531 4.683594 -6.378906 4.585938 -6.199219 C 4.46875 -5.984375 4.410156 -5.699219 4.410156 -5.339844 C 4.410156 -4.917969 4.480469 -4.574219 4.617188 -4.300781 C 4.726562 -4.089844 4.867188 -3.933594 5.042969 -3.828125 C 5.234375 -3.714844 5.484375 -3.65625 5.796875 -3.65625 C 5.96875 -3.65625 6.15625 -3.710938 6.359375 -3.816406 C 6.609375 -3.941406 6.789062 -4.074219 6.90625 -4.21875 C 7.167969 -4.527344 7.449219 -4.78125 7.761719 -4.976562 C 8.132812 -5.214844 8.535156 -5.363281 8.960938 -5.425781 C 9.335938 -5.484375 9.699219 -5.476562 10.050781 -5.40625 C 10.441406 -5.332031 10.800781 -5.183594 11.132812 -4.964844 C 11.480469 -4.738281 11.765625 -4.453125 11.984375 -4.109375 C 12.203125 -3.769531 12.347656 -3.398438 12.414062 -2.992188 C 12.492188 -2.542969 12.457031 -2.089844 12.320312 -1.640625 C 12.214844 -1.300781 12.050781 -0.96875 11.824219 -0.644531 C 11.363281 0.0078125 10.78125 0.5625 10.082031 1.015625 C 9.441406 1.433594 8.75 1.753906 8.003906 1.976562 C 7.257812 2.203125 6.511719 2.3125 5.765625 2.3125 C 4.304688 2.3125 3.007812 1.992188 1.871094 1.34375 C 0.707031 0.683594 -0.199219 -0.238281 -0.839844 -1.421875 C -1.460938 -2.566406 -1.773438 -3.871094 -1.773438 -5.339844 C -1.773438 -6.792969 -1.4375 -8.085938 -0.765625 -9.210938 C -0.09375 -10.335938 0.824219 -11.210938 1.988281 -11.835938 C 3.121094 -12.445312 4.367188 -12.746094 5.734375 -12.746094 Z M 5.734375 -8.449219 C 5.089844 -8.449219 4.519531 -8.316406 4.023438 -8.046875 C 3.558594 -7.800781 3.191406 -7.453125 2.925781 -7.003906 C 2.660156 -6.558594 2.527344 -6.003906 2.527344 -5.339844 C 2.527344 -4.601562 2.664062 -3.980469 2.9375 -3.476562 C 3.191406 -3.011719 3.542969 -2.648438 3.992188 -2.394531 C 4.472656 -2.121094 5.0625 -1.984375 5.765625 -1.984375 C 6.089844 -1.984375 6.425781 -2.039062 6.769531 -2.140625 C 7.117188 -2.246094 7.441406 -2.394531 7.738281 -2.585938 C 7.980469 -2.746094 8.164062 -2.914062 8.289062 -3.089844 C 8.261719 -3.050781 8.234375 -2.988281 8.210938 -2.90625 C 8.148438 -2.710938 8.136719 -2.503906 8.175781 -2.285156 C 8.203125 -2.105469 8.269531 -1.9375 8.375 -1.777344 C 8.480469 -1.609375 8.613281 -1.476562 8.769531 -1.371094 C 8.910156 -1.28125 9.0625 -1.21875 9.226562 -1.1875 C 9.359375 -1.160156 9.480469 -1.15625 9.597656 -1.175781 C 9.765625 -1.199219 9.921875 -1.253906 10.058594 -1.34375 C 10.128906 -1.386719 10.1875 -1.433594 10.226562 -1.484375 C 9.730469 -0.882812 9.09375 -0.382812 8.316406 0.015625 C 7.496094 0.433594 6.65625 0.644531 5.796875 0.644531 C 4.691406 0.644531 3.707031 0.382812 2.835938 -0.136719 C 1.953125 -0.664062 1.269531 -1.402344 0.785156 -2.347656 C 0.335938 -3.234375 0.109375 -4.230469 0.109375 -5.339844 C 0.109375 -6.421875 0.339844 -7.390625 0.804688 -8.246094 C 1.285156 -9.136719 1.960938 -9.835938 2.828125 -10.335938 C 3.679688 -10.832031 4.644531 -11.078125 5.714844 -11.078125 C 6.433594 -11.078125 7.113281 -10.984375 7.761719 -10.796875 C 8.609375 -10.550781 9.371094 -10.054688 10.046875 -9.304688 L 8.453125 -7.863281 L 10.007812 -9.34375 C 9.953125 -9.40625 9.875 -9.460938 9.777344 -9.507812 C 9.613281 -9.59375 9.4375 -9.640625 9.242188 -9.648438 C 9.117188 -9.65625 8.992188 -9.636719 8.859375 -9.597656 C 8.710938 -9.550781 8.578125 -9.480469 8.457031 -9.386719 C 8.320312 -9.28125 8.210938 -9.148438 8.125 -8.992188 C 8.035156 -8.839844 7.984375 -8.675781 7.964844 -8.507812 C 7.933594 -8.261719 7.960938 -8.03125 8.050781 -7.8125 C 8.089844 -7.707031 8.144531 -7.617188 8.207031 -7.546875 C 7.917969 -7.871094 7.605469 -8.089844 7.269531 -8.207031 C 6.808594 -8.367188 6.296875 -8.449219 5.734375 -8.449219 Z M 5.734375 -8.449219 "/></g></g></g><g fill="#1f2b5b" fill-opacity="1"><g transform="translate(183.469592, 216.342262)"><g><path d="M 1.9375 -10.4375 C 2.28125 -10.4375 2.554688 -10.269531 2.765625 -9.9375 L 6.1875 -4.578125 L 9.59375 -9.953125 C 9.707031 -10.117188 9.84375 -10.238281 10 -10.3125 C 10.15625 -10.394531 10.3125 -10.4375 10.46875 -10.4375 C 10.707031 -10.4375 10.914062 -10.351562 11.09375 -10.1875 C 11.28125 -10.03125 11.375 -9.804688 11.375 -9.515625 L 11.375 -0.84375 C 11.375 -0.5625 11.269531 -0.347656 11.0625 -0.203125 C 10.863281 -0.0664062 10.648438 0 10.421875 0 C 10.171875 0 9.953125 -0.0664062 9.765625 -0.203125 C 9.578125 -0.347656 9.484375 -0.5625 9.484375 -0.84375 L 9.484375 -6.375 L 7.046875 -2.546875 C 6.953125 -2.390625 6.828125 -2.269531 6.671875 -2.1875 C 6.515625 -2.113281 6.351562 -2.078125 6.1875 -2.078125 C 6.019531 -2.078125 5.851562 -2.125 5.6875 -2.21875 C 5.519531 -2.3125 5.394531 -2.441406 5.3125 -2.609375 L 2.890625 -6.359375 L 2.890625 -0.84375 C 2.890625 -0.5625 2.789062 -0.347656 2.59375 -0.203125 C 2.394531 -0.0664062 2.179688 0 1.953125 0 C 1.710938 0 1.492188 -0.0664062 1.296875 -0.203125 C 1.097656 -0.347656 1 -0.5625 1 -0.84375 L 1 -9.5 C 1 -9.78125 1.09375 -10.003906 1.28125 -10.171875 C 1.476562 -10.347656 1.695312 -10.4375 1.9375 -10.4375 Z M 1.9375 -10.4375 "/></g></g></g><g fill="#1f2b5b" fill-opacity="1"><g transform="translate(198.597605, 216.342262)"><g><path d="M 8.53125 -1.640625 C 8.8125 -1.640625 9.03125 -1.546875 9.1875 -1.359375 C 9.351562 -1.179688 9.4375 -0.988281 9.4375 -0.78125 C 9.4375 -0.582031 9.359375 -0.398438 9.203125 -0.234375 C 9.054688 -0.078125 8.832031 0 8.53125 0 L 2.03125 0 C 1.707031 0 1.445312 -0.09375 1.25 -0.28125 C 1.050781 -0.476562 0.953125 -0.710938 0.953125 -0.984375 L 0.953125 -9.46875 C 0.953125 -9.726562 1.050781 -9.953125 1.25 -10.140625 C 1.445312 -10.335938 1.707031 -10.4375 2.03125 -10.4375 L 8.53125 -10.4375 C 8.820312 -10.4375 9.039062 -10.351562 9.1875 -10.1875 C 9.332031 -10.03125 9.40625 -9.847656 9.40625 -9.640625 C 9.40625 -9.441406 9.328125 -9.253906 9.171875 -9.078125 C 9.023438 -8.910156 8.8125 -8.828125 8.53125 -8.828125 L 2.8125 -8.828125 L 2.8125 -5.953125 L 8.234375 -5.953125 C 8.515625 -5.953125 8.726562 -5.867188 8.875 -5.703125 C 9.019531 -5.535156 9.09375 -5.347656 9.09375 -5.140625 C 9.09375 -4.941406 9.019531 -4.757812 8.875 -4.59375 C 8.726562 -4.4375 8.515625 -4.359375 8.234375 -4.359375 L 2.8125 -4.359375 L 2.8125 -1.640625 Z M 8.53125 -1.640625 "/></g></g></g><g fill="#1f2b5b" fill-opacity="1"><g transform="translate(211.057118, 216.342262)"><g><path d="M 4.828125 -10.4375 C 5.828125 -10.4375 6.695312 -10.21875 7.4375 -9.78125 C 8.175781 -9.34375 8.753906 -8.734375 9.171875 -7.953125 C 9.585938 -7.171875 9.796875 -6.253906 9.796875 -5.203125 C 9.796875 -4.171875 9.585938 -3.257812 9.171875 -2.46875 C 8.753906 -1.6875 8.175781 -1.078125 7.4375 -0.640625 C 6.695312 -0.210938 5.828125 0 4.828125 0 L 1.453125 0 C 1.160156 0 0.90625 -0.09375 0.6875 -0.28125 C 0.476562 -0.476562 0.375 -0.707031 0.375 -0.96875 L 0.375 -9.484375 C 0.375 -9.742188 0.476562 -9.96875 0.6875 -10.15625 C 0.90625 -10.34375 1.160156 -10.4375 1.453125 -10.4375 Z M 4.828125 -1.625 C 5.441406 -1.625 5.976562 -1.769531 6.4375 -2.0625 C 6.90625 -2.363281 7.265625 -2.78125 7.515625 -3.3125 C 7.773438 -3.851562 7.90625 -4.484375 7.90625 -5.203125 C 7.90625 -5.921875 7.773438 -6.550781 7.515625 -7.09375 C 7.265625 -7.644531 6.90625 -8.070312 6.4375 -8.375 C 5.976562 -8.675781 5.441406 -8.828125 4.828125 -8.828125 L 2.25 -8.828125 L 2.25 -1.625 Z M 4.828125 -1.625 "/></g></g></g><g fill="#1f2b5b" fill-opacity="1"><g transform="translate(223.811318, 216.342262)"><g><path d="M 0.734375 -9.546875 C 0.734375 -9.847656 0.832031 -10.070312 1.03125 -10.21875 C 1.226562 -10.363281 1.445312 -10.4375 1.6875 -10.4375 C 1.925781 -10.4375 2.144531 -10.363281 2.34375 -10.21875 C 2.550781 -10.070312 2.65625 -9.847656 2.65625 -9.546875 L 2.65625 -0.828125 C 2.65625 -0.554688 2.550781 -0.347656 2.34375 -0.203125 C 2.144531 -0.0664062 1.925781 0 1.6875 0 C 1.445312 0 1.226562 -0.0664062 1.03125 -0.203125 C 0.832031 -0.335938 0.734375 -0.546875 0.734375 -0.828125 Z M 0.734375 -9.546875 "/></g></g></g><g fill="#1f2b5b" fill-opacity="1"><g transform="translate(229.411335, 216.342262)"><g><path d="M 5.734375 -10.59375 C 6.535156 -10.59375 7.28125 -10.472656 7.96875 -10.234375 C 8.65625 -9.992188 9.269531 -9.570312 9.8125 -8.96875 C 10.03125 -8.71875 10.125 -8.476562 10.09375 -8.25 C 10.0625 -8.019531 9.957031 -7.832031 9.78125 -7.6875 C 9.601562 -7.550781 9.390625 -7.488281 9.140625 -7.5 C 8.898438 -7.507812 8.671875 -7.628906 8.453125 -7.859375 C 8.046875 -8.304688 7.613281 -8.59375 7.15625 -8.71875 C 6.707031 -8.851562 6.226562 -8.921875 5.71875 -8.921875 C 5.03125 -8.921875 4.425781 -8.769531 3.90625 -8.46875 C 3.382812 -8.175781 2.976562 -7.757812 2.6875 -7.21875 C 2.40625 -6.6875 2.265625 -6.0625 2.265625 -5.34375 C 2.265625 -4.570312 2.410156 -3.894531 2.703125 -3.3125 C 2.992188 -2.738281 3.40625 -2.289062 3.9375 -1.96875 C 4.46875 -1.65625 5.085938 -1.5 5.796875 -1.5 C 6.304688 -1.5 6.816406 -1.628906 7.328125 -1.890625 C 7.847656 -2.160156 8.257812 -2.476562 8.5625 -2.84375 C 8.78125 -3.113281 9.015625 -3.265625 9.265625 -3.296875 C 9.523438 -3.335938 9.75 -3.296875 9.9375 -3.171875 C 10.132812 -3.046875 10.25 -2.867188 10.28125 -2.640625 C 10.320312 -2.410156 10.242188 -2.148438 10.046875 -1.859375 C 9.753906 -1.453125 9.375 -1.09375 8.90625 -0.78125 C 8.4375 -0.476562 7.925781 -0.242188 7.375 -0.078125 C 6.832031 0.078125 6.296875 0.15625 5.765625 0.15625 C 4.679688 0.15625 3.734375 -0.0703125 2.921875 -0.53125 C 2.117188 -0.988281 1.492188 -1.628906 1.046875 -2.453125 C 0.597656 -3.273438 0.375 -4.238281 0.375 -5.34375 C 0.375 -6.394531 0.609375 -7.3125 1.078125 -8.09375 C 1.546875 -8.882812 2.1875 -9.5 3 -9.9375 C 3.8125 -10.375 4.722656 -10.59375 5.734375 -10.59375 Z M 5.734375 -10.59375 "/></g></g></g></svg>